<svg xmlns="http://www.w3.org/2000/svg" viewBox="8 204.21123831612726 439.2399951171875 181.90676095908026"><rect height="100%" width="100%" x="8" y="204.21123831612726" fill="rgba(20, 19, 22, 1)"/> <svg xmlns="http://www.w3.org/2000/svg" id="Layer_2" dataName="Layer 2" viewBox="0 0 195.74000549316406 109.66000366210938" height="40.897007533482146" width="73" y="274.21123831612726" x="78" preserveAspectRatio="xMinYMin" style="overflow: visible;"><polygon class="cls-1" points="41.89 109.66 0 109.66 28.66 0 70.55 0 41.89 109.66" style="fill: #f4d347;"></polygon><polygon class="cls-3" points="83.62 109.66 41.73 109.66 70.39 0 112.28 0 83.62 109.66" style="fill: #f47851;"></polygon><polygon class="cls-2" points="125.36 109.66 83.46 109.66 112.12 0 154.01 0 125.36 109.66" style="fill: #f22283;"></polygon><polygon class="cls-4" points="167.09 109.66 125.2 109.66 153.85 0 195.74 0 167.09 109.66" style="fill: #8c357e;"></polygon></svg> <svg x="167.37" y="307.4779998855591" viewBox="1.1299999952316284 3.0999999046325684 209.8699951171875 8.639999389648438" height="8.639999389648438" width="209.8699951171875" style="overflow: visible;"><g fill="#ffffff" fill-opacity="1" style=""><path d="M2.62 11.62L1.13 11.62L1.13 3.22L2.41 3.22L6.08 9.35L5.41 9.35L9.02 3.22L10.31 3.22L10.32 11.62L8.84 11.62L8.83 5.53L9.14 5.53L6.07 10.66L5.38 10.66L2.26 5.53L2.62 5.53L2.62 11.62ZM14.21 11.62L12.60 11.62L16.38 3.22L17.92 3.22L21.71 11.62L20.08 11.62L16.82 4.04L17.45 4.04L14.21 11.62ZM19.72 9.67L14.34 9.67L14.76 8.45L19.30 8.45L19.72 9.67ZM25.54 11.62L23.98 11.62L23.98 3.22L27.43 3.22Q28.55 3.22 29.35 3.58Q30.14 3.94 30.58 4.61Q31.01 5.28 31.01 6.20L31.01 6.20Q31.01 7.13 30.58 7.79Q30.14 8.46 29.35 8.81Q28.55 9.17 27.43 9.17L27.43 9.17L24.84 9.17L25.54 8.46L25.54 11.62ZM31.15 11.62L29.47 11.62L27.35 8.57L29.02 8.57L31.15 11.62ZM25.54 3.77L25.54 8.63L24.84 7.88L27.36 7.88Q28.39 7.88 28.91 7.44Q29.44 7.00 29.44 6.20L29.44 6.20Q29.44 5.40 28.91 4.97Q28.39 4.54 27.36 4.54L27.36 4.54L24.84 4.54L25.54 3.77ZM36.89 8.05L35.34 9.64L35.26 7.79L39.66 3.22L41.41 3.22L37.75 7.10L36.89 8.05ZM35.51 11.62L33.95 11.62L33.95 3.22L35.51 3.22L35.51 11.62ZM41.63 11.62L39.80 11.62L36.59 7.79L37.62 6.65L41.63 11.62ZM45.34 7.99L45.34 6.71L49.51 6.71L49.51 7.99L45.34 7.99ZM45.46 4.52L45.46 10.31L50.20 10.31L50.20 11.62L43.90 11.62L43.90 3.22L50.03 3.22L50.03 4.52L45.46 4.52ZM56.40 11.62L54.84 11.62L54.84 4.54L52.06 4.54L52.06 3.22L59.18 3.22L59.18 4.54L56.40 4.54L56.40 11.62ZM63.12 11.62L61.56 11.62L61.56 3.22L63.12 3.22L63.12 11.62ZM68.14 11.62L66.59 11.62L66.59 3.22L67.87 3.22L73.14 9.68L72.50 9.68L72.50 3.22L74.05 3.22L74.05 11.62L72.77 11.62L67.50 5.15L68.14 5.15L68.14 11.62ZM81.43 11.74L81.43 11.74Q80.45 11.74 79.63 11.42Q78.80 11.10 78.19 10.52Q77.58 9.94 77.24 9.14Q76.91 8.35 76.91 7.42L76.91 7.42Q76.91 6.48 77.24 5.69Q77.58 4.90 78.20 4.31Q78.82 3.73 79.64 3.41Q80.47 3.10 81.46 3.10L81.46 3.10Q82.52 3.10 83.38 3.44Q84.24 3.79 84.83 4.46L84.83 4.46L83.84 5.42Q83.35 4.93 82.78 4.70Q82.21 4.46 81.53 4.46L81.53 4.46Q80.87 4.46 80.30 4.68Q79.74 4.90 79.33 5.29Q78.92 5.69 78.70 6.23Q78.48 6.77 78.48 7.42L78.48 7.42Q78.48 8.05 78.70 8.59Q78.92 9.13 79.33 9.53Q79.74 9.94 80.29 10.15Q80.84 10.37 81.52 10.37L81.52 10.37Q82.14 10.37 82.72 10.17Q83.30 9.97 83.83 9.50L83.83 9.50L84.72 10.67Q84.06 11.20 83.19 11.47Q82.32 11.74 81.43 11.74ZM84.72 10.67L83.24 10.46L83.24 7.32L84.72 7.32L84.72 10.67ZM96.66 11.62L92.48 11.62L92.48 3.22L96.42 3.22Q97.93 3.22 98.72 3.81Q99.52 4.40 99.52 5.40L99.52 5.40Q99.52 6.07 99.20 6.55Q98.89 7.02 98.37 7.28Q97.85 7.54 97.24 7.54L97.24 7.54L97.45 7.10Q98.16 7.10 98.72 7.36Q99.29 7.62 99.62 8.11Q99.95 8.60 99.95 9.34L99.95 9.34Q99.95 10.42 99.12 11.02Q98.29 11.62 96.66 11.62L96.66 11.62ZM94.04 4.44L94.04 10.39L96.56 10.39Q97.44 10.39 97.91 10.10Q98.38 9.82 98.38 9.18L98.38 9.18Q98.38 8.56 97.91 8.26Q97.44 7.97 96.56 7.97L96.56 7.97L93.92 7.97L93.92 6.76L96.25 6.76Q97.07 6.76 97.51 6.47Q97.94 6.18 97.94 5.60L97.94 5.60Q97.94 5.02 97.51 4.73Q97.07 4.44 96.25 4.44L96.25 4.44L94.04 4.44ZM103.24 11.62L101.63 11.62L105.41 3.22L106.94 3.22L110.74 11.62L109.10 11.62L105.85 4.04L106.48 4.04L103.24 11.62ZM108.74 9.67L103.37 9.67L103.79 8.45L108.32 8.45L108.74 9.67ZM115.61 11.74L115.61 11.74Q114.62 11.74 113.72 11.45Q112.82 11.17 112.30 10.73L112.30 10.73L112.84 9.52Q113.34 9.91 114.08 10.18Q114.83 10.44 115.61 10.44L115.61 10.44Q116.27 10.44 116.68 10.30Q117.08 10.15 117.28 9.91Q117.47 9.66 117.47 9.35L117.47 9.35Q117.47 8.96 117.19 8.73Q116.92 8.50 116.48 8.36Q116.04 8.22 115.51 8.10Q114.97 7.98 114.44 7.82Q113.90 7.66 113.47 7.40Q113.03 7.14 112.75 6.71Q112.48 6.28 112.48 5.60L112.48 5.60Q112.48 4.92 112.84 4.35Q113.21 3.78 113.96 3.44Q114.71 3.10 115.86 3.10L115.86 3.10Q116.62 3.10 117.36 3.29Q118.10 3.48 118.66 3.84L118.66 3.84L118.16 5.05Q117.60 4.72 117.00 4.55Q116.40 4.39 115.85 4.39L115.85 4.39Q115.20 4.39 114.80 4.55Q114.40 4.70 114.21 4.96Q114.02 5.21 114.02 5.53L114.02 5.53Q114.02 5.92 114.29 6.15Q114.56 6.38 115.00 6.52Q115.44 6.65 115.98 6.77Q116.52 6.90 117.05 7.06Q117.59 7.21 118.03 7.46Q118.46 7.72 118.73 8.15Q119.00 8.58 119.00 9.24L119.00 9.24Q119.00 9.91 118.64 10.48Q118.27 11.05 117.52 11.39Q116.76 11.74 115.61 11.74ZM123.19 7.99L123.19 6.71L127.37 6.71L127.37 7.99L123.19 7.99ZM123.31 4.52L123.31 10.31L128.05 10.31L128.05 11.62L121.75 11.62L121.75 3.22L127.88 3.22L127.88 4.52L123.31 4.52ZM134.66 11.62L130.99 11.62L130.99 3.22L134.66 3.22Q136.03 3.22 137.06 3.74Q138.10 4.27 138.67 5.21Q139.25 6.14 139.25 7.42L139.25 7.42Q139.25 8.68 138.67 9.62Q138.10 10.56 137.06 11.09Q136.03 11.62 134.66 11.62L134.66 11.62ZM132.55 4.54L132.55 10.30L134.59 10.30Q135.54 10.30 136.23 9.94Q136.92 9.58 137.30 8.93Q137.68 8.28 137.68 7.42L137.68 7.42Q137.68 6.54 137.30 5.90Q136.92 5.26 136.23 4.90Q135.54 4.54 134.59 4.54L134.59 4.54L132.55 4.54ZM150.55 11.74L150.55 11.74Q149.57 11.74 148.74 11.41Q147.91 11.09 147.30 10.51Q146.69 9.92 146.35 9.14Q146.02 8.35 146.02 7.42L146.02 7.42Q146.02 6.48 146.35 5.69Q146.69 4.91 147.30 4.33Q147.91 3.74 148.74 3.42Q149.57 3.10 150.54 3.10L150.54 3.10Q151.52 3.10 152.35 3.42Q153.17 3.74 153.78 4.33Q154.39 4.91 154.73 5.69Q155.06 6.48 155.06 7.42L155.06 7.42Q155.06 8.35 154.73 9.14Q154.39 9.94 153.78 10.51Q153.17 11.09 152.35 11.41Q151.52 11.74 150.55 11.74ZM150.54 10.37L150.54 10.37Q151.18 10.37 151.72 10.15Q152.26 9.94 152.65 9.53Q153.05 9.13 153.27 8.60Q153.49 8.06 153.49 7.42L153.49 7.42Q153.49 6.77 153.27 6.23Q153.05 5.70 152.65 5.30Q152.26 4.90 151.72 4.68Q151.18 4.46 150.54 4.46L150.54 4.46Q149.90 4.46 149.37 4.68Q148.84 4.90 148.43 5.30Q148.03 5.70 147.81 6.23Q147.59 6.77 147.59 7.42L147.59 7.42Q147.59 8.05 147.81 8.59Q148.03 9.13 148.43 9.53Q148.82 9.94 149.36 10.15Q149.90 10.37 150.54 10.37ZM159.47 11.62L157.92 11.62L157.92 3.22L159.20 3.22L164.47 9.68L163.84 9.68L163.84 3.22L165.38 3.22L165.38 11.62L164.10 11.62L158.83 5.15L159.47 5.15L159.47 11.62ZM177.02 11.62L173.35 11.62L173.35 3.22L177.02 3.22Q178.39 3.22 179.42 3.74Q180.46 4.27 181.03 5.21Q181.61 6.14 181.61 7.42L181.61 7.42Q181.61 8.68 181.03 9.62Q180.46 10.56 179.42 11.09Q178.39 11.62 177.02 11.62L177.02 11.62ZM174.91 4.54L174.91 10.30L176.95 10.30Q177.90 10.30 178.59 9.94Q179.28 9.58 179.66 8.93Q180.04 8.28 180.04 7.42L180.04 7.42Q180.04 6.54 179.66 5.90Q179.28 5.26 178.59 4.90Q177.90 4.54 176.95 4.54L176.95 4.54L174.91 4.54ZM184.88 11.62L183.28 11.62L187.06 3.22L188.59 3.22L192.38 11.62L190.75 11.62L187.50 4.04L188.12 4.04L184.88 11.62ZM190.39 9.67L185.02 9.67L185.44 8.45L189.97 8.45L190.39 9.67ZM197.92 11.62L196.36 11.62L196.36 4.54L193.57 4.54L193.57 3.22L200.70 3.22L200.70 4.54L197.92 4.54L197.92 11.62ZM203.50 11.62L201.89 11.62L205.67 3.22L207.20 3.22L211.00 11.62L209.36 11.62L206.11 4.04L206.74 4.04L203.50 11.62ZM209.00 9.67L203.63 9.67L204.05 8.45L208.58 8.45L209.00 9.67Z" transform="translate(0, 0)"></path></g></svg> <svg x="167.37" y="275.2150001144409" viewBox="0.9200000166893005 16.5 179.1999969482422 24.56999969482422" height="24.56999969482422" width="179.1999969482422" style="overflow: visible;"><g fill="#ffffff" fill-opacity="1" style=""><path d="M14.21 41.07L14.21 41.07Q7.73 41.07 4.33 37.89Q0.92 34.71 0.92 28.90L0.92 28.90Q0.92 22.90 4.25 19.70Q7.58 16.50 14.17 16.50L14.17 16.50Q16.39 16.50 18.13 16.83Q19.87 17.17 21.46 17.76L21.46 17.76L21.46 23.83Q18.28 22.42 14.65 22.42L14.65 22.42Q11.29 22.42 9.66 23.96Q8.03 25.49 8.03 28.90L8.03 28.90Q8.03 32.23 9.75 33.69Q11.47 35.15 14.73 35.15L14.73 35.15Q16.50 35.15 18.19 34.82Q19.87 34.48 21.53 33.78L21.53 33.78L21.53 39.89Q19.94 40.44 18.19 40.76Q16.43 41.07 14.21 41.07ZM35.19 41.07L35.19 41.07Q29.27 41.07 26.14 38.18Q23.01 35.30 23.01 28.86L23.01 28.86Q23.01 24.42 24.42 21.70Q25.83 18.98 28.55 17.74Q31.27 16.50 35.19 16.50L35.19 16.50Q39.11 16.50 41.83 17.74Q44.55 18.98 45.95 21.70Q47.36 24.42 47.36 28.86L47.36 28.86Q47.36 35.30 44.21 38.18Q41.07 41.07 35.19 41.07ZM35.19 35.15L35.19 35.15Q37.85 35.15 39.05 33.65Q40.26 32.15 40.26 28.86L40.26 28.86Q40.26 25.34 39.05 23.88Q37.85 22.42 35.19 22.42L35.19 22.42Q32.52 22.42 31.32 23.88Q30.12 25.34 30.12 28.86L30.12 28.86Q30.12 32.15 31.32 33.65Q32.52 35.15 35.19 35.15ZM67.64 40.70L49.95 40.70L49.95 16.87L56.91 16.87L56.91 35.37L67.64 35.37L67.64 40.70ZM87.17 40.70L69.49 40.70L69.49 16.87L76.44 16.87L76.44 35.37L87.17 35.37L87.17 40.70ZM98.46 40.70L91.50 40.70L91.50 31.97L82.92 16.87L90.17 16.87L94.98 25.86L99.79 16.87L107.04 16.87L98.46 31.97L98.46 40.70ZM120.88 40.70L113.92 40.70L113.92 22.05L107.23 22.05L107.23 16.87L127.58 16.87L127.58 22.05L120.88 22.05L120.88 40.70ZM136.38 40.70L129.43 40.70L129.43 16.87L136.38 16.87L136.38 40.70ZM152.25 41.07L152.25 41.07Q145.78 41.07 142.38 37.89Q138.97 34.71 138.97 28.90L138.97 28.90Q138.97 22.90 142.30 19.70Q145.63 16.50 152.22 16.50L152.22 16.50Q154.44 16.50 156.18 16.83Q157.92 17.17 159.51 17.76L159.51 17.76L159.51 23.83Q156.32 22.42 152.70 22.42L152.70 22.42Q149.33 22.42 147.70 23.96Q146.08 25.49 146.08 28.90L146.08 28.90Q146.08 32.23 147.80 33.69Q149.52 35.15 152.77 35.15L152.77 35.15Q154.55 35.15 156.23 34.82Q157.92 34.48 159.58 33.78L159.58 33.78L159.58 39.89Q157.99 40.44 156.23 40.76Q154.47 41.07 152.25 41.07ZM169.98 41.07L169.98 41.07Q167.57 41.07 165.43 40.68Q163.28 40.29 161.76 39.59L161.76 39.59L161.76 33.85Q163.43 34.63 165.46 35.11Q167.50 35.59 169.28 35.59L169.28 35.59Q171.13 35.59 172.07 35.28Q173.01 34.96 173.01 33.85L173.01 33.85Q173.01 33.08 172.48 32.63Q171.94 32.19 170.81 31.82Q169.68 31.45 167.87 30.89L167.87 30.89Q165.46 30.12 164.06 29.19Q162.65 28.27 162.04 26.94Q161.43 25.60 161.43 23.68L161.43 23.68Q161.43 20.16 163.93 18.33Q166.43 16.50 171.35 16.50L171.35 16.50Q173.31 16.50 175.40 16.83Q177.49 17.17 178.78 17.57L178.78 17.57L178.78 23.35Q177.04 22.64 175.45 22.35Q173.86 22.05 172.46 22.05L172.46 22.05Q170.83 22.05 169.68 22.31Q168.53 22.57 168.53 23.64L168.53 23.64Q168.53 24.57 169.52 24.99Q170.50 25.42 173.01 26.08L173.01 26.08Q175.94 26.86 177.47 27.97Q179.01 29.08 179.56 30.54Q180.12 32.00 180.12 33.85L180.12 33.85Q180.12 37.11 177.60 39.09Q175.08 41.07 169.98 41.07Z" transform="translate(0, 0)"></path></g></svg></svg>